<mxfile host="app.diagrams.net" modified="2024-05-15T14:04:07.906Z" agent="Mozilla/5.0 (X11; Ubuntu; Linux x86_64; rv:125.0) Gecko/20100101 Firefox/125.0" etag="uXKai6u_SscdrIXDZzK2" version="24.4.0" type="device">
  <diagram name="Page-1" id="aEhnHE0jRf3IDKj4jw6e">
    <mxGraphModel dx="1364" dy="795" grid="1" gridSize="10" guides="1" tooltips="1" connect="1" arrows="1" fold="1" page="1" pageScale="1" pageWidth="1169" pageHeight="827" math="0" shadow="0">
      <root>
        <mxCell id="0" />
        <mxCell id="1" parent="0" />
        <mxCell id="lCYvwyUZugSk18_35s6E-1" value="" style="shape=table;startSize=0;container=1;collapsible=0;childLayout=tableLayout;fontSize=18;" vertex="1" parent="1">
          <mxGeometry x="10" y="357" width="1150" height="113" as="geometry" />
        </mxCell>
        <mxCell id="lCYvwyUZugSk18_35s6E-2" value="" style="shape=tableRow;horizontal=0;startSize=0;swimlaneHead=0;swimlaneBody=0;strokeColor=inherit;top=0;left=0;bottom=0;right=0;collapsible=0;dropTarget=0;fillColor=none;points=[[0,0.5],[1,0.5]];portConstraint=eastwest;fontSize=30;" vertex="1" parent="lCYvwyUZugSk18_35s6E-1">
          <mxGeometry width="1150" height="113" as="geometry" />
        </mxCell>
        <mxCell id="lCYvwyUZugSk18_35s6E-21" value="G0" style="shape=partialRectangle;html=1;whiteSpace=wrap;connectable=0;strokeColor=#3700CC;overflow=hidden;fillColor=#6a00ff;top=0;left=0;bottom=0;right=0;pointerEvents=1;fontSize=31;fillStyle=cross-hatch;fontColor=#000000;" vertex="1" parent="lCYvwyUZugSk18_35s6E-2">
          <mxGeometry width="104" height="113" as="geometry">
            <mxRectangle width="104" height="113" as="alternateBounds" />
          </mxGeometry>
        </mxCell>
        <mxCell id="lCYvwyUZugSk18_35s6E-20" value="A0" style="shape=partialRectangle;html=1;whiteSpace=wrap;connectable=0;strokeColor=#001DBC;overflow=hidden;fillColor=#0050ef;top=0;left=0;bottom=0;right=0;pointerEvents=1;fontSize=31;fillStyle=hatch;fontColor=#000000;" vertex="1" parent="lCYvwyUZugSk18_35s6E-2">
          <mxGeometry x="104" width="106" height="113" as="geometry">
            <mxRectangle width="106" height="113" as="alternateBounds" />
          </mxGeometry>
        </mxCell>
        <mxCell id="lCYvwyUZugSk18_35s6E-19" value="A1" style="shape=partialRectangle;html=1;whiteSpace=wrap;connectable=0;strokeColor=#001DBC;overflow=hidden;fillColor=#0050ef;top=0;left=0;bottom=0;right=0;pointerEvents=1;fontSize=31;fillStyle=hatch;fontColor=#000000;" vertex="1" parent="lCYvwyUZugSk18_35s6E-2">
          <mxGeometry x="210" width="103" height="113" as="geometry">
            <mxRectangle width="103" height="113" as="alternateBounds" />
          </mxGeometry>
        </mxCell>
        <mxCell id="lCYvwyUZugSk18_35s6E-18" value="M0" style="shape=partialRectangle;html=1;whiteSpace=wrap;connectable=0;strokeColor=#B20000;overflow=hidden;fillColor=#e51400;top=0;left=0;bottom=0;right=0;pointerEvents=1;fontSize=31;fillStyle=cross-hatch;fontColor=#000000;" vertex="1" parent="lCYvwyUZugSk18_35s6E-2">
          <mxGeometry x="313" width="105" height="113" as="geometry">
            <mxRectangle width="105" height="113" as="alternateBounds" />
          </mxGeometry>
        </mxCell>
        <mxCell id="lCYvwyUZugSk18_35s6E-17" value="M1" style="shape=partialRectangle;html=1;whiteSpace=wrap;connectable=0;strokeColor=#B20000;overflow=hidden;fillColor=#e51400;top=0;left=0;bottom=0;right=0;pointerEvents=1;fontSize=31;fillStyle=cross-hatch;fontColor=#000000;" vertex="1" parent="lCYvwyUZugSk18_35s6E-2">
          <mxGeometry x="418" width="104" height="113" as="geometry">
            <mxRectangle width="104" height="113" as="alternateBounds" />
          </mxGeometry>
        </mxCell>
        <mxCell id="lCYvwyUZugSk18_35s6E-16" value="M2" style="shape=partialRectangle;html=1;whiteSpace=wrap;connectable=0;strokeColor=#B20000;overflow=hidden;fillColor=#e51400;top=0;left=0;bottom=0;right=0;pointerEvents=1;fontSize=31;fillStyle=cross-hatch;perimeterSpacing=1;shadow=0;fontColor=#000000;" vertex="1" parent="lCYvwyUZugSk18_35s6E-2">
          <mxGeometry x="522" width="106" height="113" as="geometry">
            <mxRectangle width="106" height="113" as="alternateBounds" />
          </mxGeometry>
        </mxCell>
        <mxCell id="lCYvwyUZugSk18_35s6E-15" value="C0" style="shape=partialRectangle;html=1;whiteSpace=wrap;connectable=0;strokeColor=#2D7600;overflow=hidden;fillColor=#60a917;top=0;left=0;bottom=0;right=0;pointerEvents=1;fontSize=31;fillStyle=hatch;fontColor=#000000;" vertex="1" parent="lCYvwyUZugSk18_35s6E-2">
          <mxGeometry x="628" width="104" height="113" as="geometry">
            <mxRectangle width="104" height="113" as="alternateBounds" />
          </mxGeometry>
        </mxCell>
        <mxCell id="lCYvwyUZugSk18_35s6E-14" value="C1" style="shape=partialRectangle;html=1;whiteSpace=wrap;connectable=0;strokeColor=#2D7600;overflow=hidden;fillColor=#60a917;top=0;left=0;bottom=0;right=0;pointerEvents=1;fontSize=31;fillStyle=hatch;fontColor=#000000;" vertex="1" parent="lCYvwyUZugSk18_35s6E-2">
          <mxGeometry x="732" width="105" height="113" as="geometry">
            <mxRectangle width="105" height="113" as="alternateBounds" />
          </mxGeometry>
        </mxCell>
        <mxCell id="lCYvwyUZugSk18_35s6E-3" value="C2" style="shape=partialRectangle;html=1;whiteSpace=wrap;connectable=0;strokeColor=#2D7600;overflow=hidden;fillColor=#60a917;top=0;left=0;bottom=0;right=0;pointerEvents=1;fontSize=31;fillStyle=hatch;fontColor=#000000;" vertex="1" parent="lCYvwyUZugSk18_35s6E-2">
          <mxGeometry x="837" width="103" height="113" as="geometry">
            <mxRectangle width="103" height="113" as="alternateBounds" />
          </mxGeometry>
        </mxCell>
        <mxCell id="lCYvwyUZugSk18_35s6E-4" value="C3" style="shape=partialRectangle;html=1;whiteSpace=wrap;connectable=0;strokeColor=#2D7600;overflow=hidden;fillColor=#60a917;top=0;left=0;bottom=0;right=0;pointerEvents=1;fontSize=31;fillStyle=hatch;fontColor=#000000;" vertex="1" parent="lCYvwyUZugSk18_35s6E-2">
          <mxGeometry x="940" width="106" height="113" as="geometry">
            <mxRectangle width="106" height="113" as="alternateBounds" />
          </mxGeometry>
        </mxCell>
        <mxCell id="lCYvwyUZugSk18_35s6E-5" value="C4" style="shape=partialRectangle;html=1;whiteSpace=wrap;connectable=0;strokeColor=#2D7600;overflow=hidden;fillColor=#60a917;top=0;left=0;bottom=0;right=0;pointerEvents=1;fontSize=31;fillStyle=hatch;fontColor=#000000;" vertex="1" parent="lCYvwyUZugSk18_35s6E-2">
          <mxGeometry x="1046" width="104" height="113" as="geometry">
            <mxRectangle width="104" height="113" as="alternateBounds" />
          </mxGeometry>
        </mxCell>
      </root>
    </mxGraphModel>
  </diagram>
</mxfile>
